<?xml version="1.0" encoding="utf-8"?>
<!-- Generator: Adobe Illustrator 21.1.0, SVG Export Plug-In . SVG Version: 6.00 Build 0)  -->
<svg version="1.1" id="Layer_1" xmlns="http://www.w3.org/2000/svg" xmlns:xlink="http://www.w3.org/1999/xlink" x="0px" y="0px"
	 viewBox="0 0 32 32" style="enable-background:new 0 0 32 32;" xml:space="preserve">
<style type="text/css">
	.st0{clip-path:url(#SVGID_2_);}
	.st1{clip-path:url(#SVGID_4_);}
	.st2{clip-path:url(#SVGID_6_);}
	.st3{clip-path:url(#SVGID_8_);}
	.st4{clip-path:url(#SVGID_10_);}
	.st5{clip-path:url(#SVGID_12_);}
</style>
<g>
	<g>
		<defs>
			<path id="SVGID_1_" d="M24.8,23.8c-1.4,0-2.5,1.1-2.5,2.5c0,1.4,1.1,2.5,2.5,2.5c1.4,0,2.5-1.1,2.5-2.5
				C27.3,24.9,26.2,23.8,24.8,23.8"/>
		</defs>
		<clipPath id="SVGID_2_">
			<use xlink:href="#SVGID_1_"  style="overflow:visible;"/>
		</clipPath>
		<g class="st0">
			<defs>
				<rect id="SVGID_3_" x="-1858.9" y="-145.4" width="2056.5" height="4889.9"/>
			</defs>
			<clipPath id="SVGID_4_">
				<use xlink:href="#SVGID_3_"  style="overflow:visible;"/>
			</clipPath>
			<rect x="15.1" y="16.7" class="st1" width="19.3" height="19.3"/>
		</g>
	</g>
	<g>
		<defs>
			<path id="SVGID_5_" d="M15.6,23.8c-1.4,0-2.5,1.1-2.5,2.5c0,1.4,1.1,2.5,2.5,2.5c1.4,0,2.5-1.1,2.5-2.5
				C18.1,24.9,17,23.8,15.6,23.8"/>
		</defs>
		<clipPath id="SVGID_6_">
			<use xlink:href="#SVGID_5_"  style="overflow:visible;"/>
		</clipPath>
		<g class="st2">
			<defs>
				<rect id="SVGID_7_" x="-1858.9" y="-145.4" width="2056.5" height="4889.9"/>
			</defs>
			<clipPath id="SVGID_8_">
				<use xlink:href="#SVGID_7_"  style="overflow:visible;"/>
			</clipPath>
			<rect x="5.9" y="16.7" class="st3" width="19.3" height="19.3"/>
		</g>
	</g>
	<g>
		<defs>
			<path id="SVGID_9_" d="M31.5,8.3c0-0.8-0.7-1.5-1.5-1.5H7.9L6.3,4.3C6.1,3.6,5.4,3.1,4.7,3.1H2.2c-0.9,0-1.7,0.8-1.7,1.7
				c0,0.9,0.8,1.7,1.7,1.7h1.3l8.8,13.6c0.2,0.7,0.9,1.2,1.6,1.2h12.6c0.7,0,1.4-0.5,1.6-1.2l3.4-11c0-0.2,0.1-0.3,0.1-0.5
				c0,0,0,0,0-0.1V8.3z M25.2,17.9H15.1L10,10.1h17.6L25.2,17.9z"/>
		</defs>
		<clipPath id="SVGID_10_">
			<use xlink:href="#SVGID_9_"  style="overflow:visible;"/>
		</clipPath>
		<g class="st4">
			<defs>
				<rect id="SVGID_11_" x="-1858.9" y="-145.4" width="2056.5" height="4889.9"/>
			</defs>
			<clipPath id="SVGID_12_">
				<use xlink:href="#SVGID_11_"  style="overflow:visible;"/>
			</clipPath>
			<rect x="-6.6" y="-4" class="st5" width="45.3" height="32.4"/>
		</g>
	</g>
</g>
</svg>
