<?xml version="1.0" encoding="utf-8"?>
<!-- Generator: Adobe Illustrator 21.1.0, SVG Export Plug-In . SVG Version: 6.00 Build 0)  -->
<svg version="1.1" id="Layer_1" xmlns="http://www.w3.org/2000/svg" xmlns:xlink="http://www.w3.org/1999/xlink" x="0px" y="0px"
	 viewBox="0 0 32 32" style="enable-background:new 0 0 32 32;" xml:space="preserve">
<style type="text/css">
	.st0{clip-path:url(#SVGID_2_);}
	.st1{clip-path:url(#SVGID_4_);}
</style>
<g>
	<defs>
		<path id="SVGID_1_" d="M1.3,10c0-1.3,1.1-2.4,2.5-2.4c0.7,0,1.3,0.2,1.8,0.7L16,18.5L26.3,8.4c0.9-1,2.5-1,3.6-0.1
			c1,0.9,1.1,2.4,0.1,3.4l-0.1,0.1L17.8,23.6c-0.9,1-2.6,1-3.6,0.1l-0.1-0.1L2.1,11.7C1.6,11.3,1.3,10.7,1.3,10"/>
	</defs>
	<use xlink:href="#SVGID_1_"  style="overflow:visible;fill-rule:evenodd;clip-rule:evenodd;"/>
	<clipPath id="SVGID_2_">
		<use xlink:href="#SVGID_1_"  style="overflow:visible;"/>
	</clipPath>
	<g class="st0">
		<defs>
			<rect id="SVGID_3_" x="-5509.1" y="-63.6" width="6034.3" height="14348.2"/>
		</defs>
		<use xlink:href="#SVGID_3_"  style="overflow:visible;"/>
		<clipPath id="SVGID_4_">
			<use xlink:href="#SVGID_3_"  style="overflow:visible;"/>
		</clipPath>
		<rect x="-19.6" y="-13.3" class="st1" width="71.2" height="58.7"/>
	</g>
</g>
</svg>
