<?xml version="1.0" encoding="utf-8"?>
<!-- Generator: Adobe Illustrator 21.1.0, SVG Export Plug-In . SVG Version: 6.00 Build 0)  -->
<svg version="1.1" id="Layer_1" xmlns="http://www.w3.org/2000/svg" xmlns:xlink="http://www.w3.org/1999/xlink" x="0px" y="0px"
	 viewBox="0 0 32 32" style="enable-background:new 0 0 32 32;" xml:space="preserve">
<g>
	<path d="M23.2,1.5l-3.8,0c-4.2,0-7,2.8-7,7.1v3.3H8.8c-0.3,0-0.6,0.3-0.6,0.6v4.8c0,0.3,0.3,0.6,0.6,0.6h3.8v12
		c0,0.3,0.3,0.6,0.6,0.6h4.9c0.3,0,0.6-0.3,0.6-0.6v-12h4.4c0.3,0,0.6-0.3,0.6-0.6l0-4.8c0-0.2-0.1-0.3-0.2-0.4
		c-0.1-0.1-0.3-0.2-0.4-0.2h-4.4V9.1c0-1.3,0.3-2,2.1-2l2.5,0c0.3,0,0.6-0.3,0.6-0.6V2.1C23.8,1.8,23.6,1.5,23.2,1.5z"/>
</g>
</svg>
