<?xml version="1.0" encoding="utf-8"?>
<!-- Generator: Adobe Illustrator 21.1.0, SVG Export Plug-In . SVG Version: 6.00 Build 0)  -->
<svg version="1.1" id="Layer_1" xmlns="http://www.w3.org/2000/svg" xmlns:xlink="http://www.w3.org/1999/xlink" x="0px" y="0px"
	 viewBox="0 0 48.5 32" style="enable-background:new 0 0 48.5 32;" xml:space="preserve">
<g>
	<path d="M17.5,19.1h7c-1.2,3.5-4.6,6.1-8.5,6c-4.7,0-8.7-3.8-9-8.7c-0.2-5.2,4-9.3,9-9.3c2.3,0,4.4,0.9,6.1,2.3
		c0.3,0.3,0.9,0.3,1.4,0L26,6.8c0.5-0.5,0.5-1.1,0-1.4c-2.6-2.4-6-4-9.8-4C8.3,1.3,1.4,7.9,1.4,15.8c0,8.1,6.4,14.7,14.5,14.7
		c7.8,0,14-6.1,14.5-13.7c0-0.2,0-3.4,0-3.4H17.3c-0.6,0-0.9,0.5-0.9,0.9v3.5C16.4,18.6,16.8,19.1,17.5,19.1z"/>
	<path d="M42.5,13.9v-3.5c0-0.5-0.5-0.9-0.9-0.9h-2.9c-0.5,0-0.9,0.5-0.9,0.9v3.5h-3.5c-0.5,0-0.9,0.5-0.9,0.9v2.7
		c0,0.5,0.5,0.9,0.9,0.9h3.7V22c0,0.5,0.5,0.9,0.9,0.9h2.9c0.5,0,0.9-0.5,0.9-0.9v-3.5h3.5c0.5,0,0.9-0.5,0.9-0.9v-2.9
		c0-0.5-0.5-0.9-0.9-0.9L42.5,13.9L42.5,13.9z"/>
</g>
</svg>
