<?xml version="1.0" encoding="utf-8"?>
<!-- Generator: Adobe Illustrator 21.1.0, SVG Export Plug-In . SVG Version: 6.00 Build 0)  -->
<svg version="1.1" id="Layer_1" xmlns="http://www.w3.org/2000/svg" xmlns:xlink="http://www.w3.org/1999/xlink" x="0px" y="0px"
	 viewBox="0 0 32 32" style="enable-background:new 0 0 32 32;" xml:space="preserve">
<style type="text/css">
	.st0{clip-path:url(#SVGID_2_);}
</style>
<g>
	<defs>
		<rect id="SVGID_1_" x="0.7" y="0.7" width="30.7" height="30.7"/>
	</defs>
	<clipPath id="SVGID_2_">
		<use xlink:href="#SVGID_1_"  style="overflow:visible;"/>
	</clipPath>
	<path class="st0" d="M16,3.4c4.1,0,4.6,0,6.2,0.1C23.7,3.6,24.5,3.8,25,4c0.7,0.3,1.2,0.6,1.8,1.1c0.5,0.5,0.9,1,1.1,1.8
		c0.2,0.5,0.5,1.4,0.5,2.8c0.1,1.6,0.1,2.1,0.1,6.2c0,4.1,0,4.6-0.1,6.2c-0.1,1.5-0.3,2.3-0.5,2.8c-0.3,0.7-0.6,1.2-1.1,1.8
		c-0.5,0.5-1,0.9-1.8,1.1c-0.5,0.2-1.4,0.5-2.8,0.5c-1.6,0.1-2.1,0.1-6.2,0.1c-4.1,0-4.6,0-6.2-0.1C8.3,28.4,7.5,28.2,7,28
		c-0.7-0.3-1.2-0.6-1.8-1.1c-0.5-0.5-0.9-1-1.1-1.8c-0.2-0.5-0.5-1.4-0.5-2.8c-0.1-1.6-0.1-2.1-0.1-6.2c0-4.1,0-4.6,0.1-6.2
		C3.6,8.3,3.8,7.5,4,7c0.3-0.7,0.6-1.2,1.1-1.8C5.7,4.7,6.2,4.3,7,4c0.5-0.2,1.4-0.5,2.8-0.5C11.4,3.4,11.9,3.4,16,3.4 M16,0.7
		c-4.2,0-4.7,0-6.3,0.1C8,0.8,6.9,1.1,6,1.5c-1,0.4-1.9,0.9-2.7,1.8C2.4,4.1,1.9,4.9,1.5,6C1.1,6.9,0.8,8,0.8,9.7
		c-0.1,1.6-0.1,2.2-0.1,6.3c0,4.2,0,4.7,0.1,6.3C0.8,24,1.1,25.1,1.5,26c0.4,1,0.9,1.9,1.8,2.7c0.9,0.9,1.7,1.4,2.7,1.8
		c1,0.4,2.1,0.6,3.7,0.7c1.6,0.1,2.2,0.1,6.3,0.1c4.2,0,4.7,0,6.3-0.1c1.6-0.1,2.7-0.3,3.7-0.7c1-0.4,1.9-0.9,2.7-1.8
		c0.9-0.9,1.4-1.7,1.8-2.7c0.4-1,0.6-2.1,0.7-3.7c0.1-1.6,0.1-2.2,0.1-6.3c0-4.2,0-4.7-0.1-6.3C31.2,8,30.9,6.9,30.5,6
		c-0.4-1-0.9-1.9-1.8-2.7c-0.9-0.9-1.7-1.4-2.7-1.8c-1-0.4-2.1-0.6-3.7-0.7C20.7,0.7,20.2,0.7,16,0.7"/>
	<path class="st0" d="M16,8.1c-4.3,0-7.9,3.5-7.9,7.9c0,4.3,3.5,7.9,7.9,7.9c4.3,0,7.9-3.5,7.9-7.9C23.9,11.7,20.3,8.1,16,8.1
		 M16,21.1c-2.8,0-5.1-2.3-5.1-5.1c0-2.8,2.3-5.1,5.1-5.1c2.8,0,5.1,2.3,5.1,5.1C21.1,18.8,18.8,21.1,16,21.1"/>
	<path class="st0" d="M26,7.8c0,1-0.8,1.8-1.8,1.8c-1,0-1.8-0.8-1.8-1.8c0-1,0.8-1.8,1.8-1.8C25.2,6,26,6.8,26,7.8"/>
</g>
</svg>
