<?xml version="1.0" encoding="utf-8"?>
<!-- Generator: Adobe Illustrator 21.1.0, SVG Export Plug-In . SVG Version: 6.00 Build 0)  -->
<svg version="1.1" id="Layer_1" xmlns="http://www.w3.org/2000/svg" xmlns:xlink="http://www.w3.org/1999/xlink" x="0px" y="0px"
	 viewBox="0 0 32 32" style="enable-background:new 0 0 32 32;" xml:space="preserve">
<g>
	<path id="LinkedIn" d="M29.8,19v10.2h-5.9v-9.5c0-2.4-0.9-4-3-4c-1.6,0-2.6,1.1-3,2.2c-0.2,0.4-0.2,0.9-0.2,1.4v10h-5.9
		c0,0,0.1-16.2,0-17.8h5.9v2.5c0,0,0,0,0,0.1h0v-0.1c0.8-1.2,2.2-2.9,5.3-2.9C26.9,11,29.8,13.5,29.8,19z M5.5,2.8
		c-2,0-3.4,1.3-3.4,3.1C2.2,7.6,3.5,9,5.4,9h0c2.1,0,3.4-1.4,3.4-3.1C8.8,4.1,7.6,2.8,5.5,2.8z M2.5,29.2h5.9V11.4H2.5V29.2z"/>
</g>
</svg>
