<?xml version="1.0" encoding="utf-8"?>
<!-- Generator: Adobe Illustrator 21.1.0, SVG Export Plug-In . SVG Version: 6.00 Build 0)  -->
<svg version="1.1" id="Layer_1" xmlns="http://www.w3.org/2000/svg" xmlns:xlink="http://www.w3.org/1999/xlink" x="0px" y="0px"
	 viewBox="0 0 32 32" style="enable-background:new 0 0 32 32;" xml:space="preserve">
<path d="M21.6,2.1c0,0,1,3.4,0.1,4.7L20.6,8l0.1,1.2l-4,5L16,11.9l1.5-2.1l-1.1-1.5l2.3-3.7l-1.3-1.3L19.3,1c0,0-4.5-1.5-8.7,3.3
	s-5.1,16,0.2,26.8l3.3-0.4l2.8-1.4l1.9-0.3l0.9-1.5l-0.6-0.2l1.4-0.7l-0.9-0.3l1.7-0.9l-1-0.2l1.5-2.4l-0.8-0.3l1.1-3.9l-0.7-1.5
	C21.5,17.2,29.2,4.8,21.6,2.1z"/>
</svg>
