<?xml version="1.0" encoding="UTF-8"?>
<svg width="15px" height="25px" viewBox="0 0 15 25" version="1.1" xmlns="http://www.w3.org/2000/svg" xmlns:xlink="http://www.w3.org/1999/xlink">
    <!-- Generator: Sketch 46.2 (44496) - http://www.bohemiancoding.com/sketch -->
    <title>Group 57</title>
    <desc>Created with Sketch.</desc>
    <defs>
        <polygon id="path-1" points="1.72765115e-15 14.5663422 1.72765115e-15 0.0667706533 24.7595841 0.0667706533 24.7595841 14.5663422"></polygon>
    </defs>
    <g id="Welcome" stroke="none" stroke-width="1" fill="none" fill-rule="evenodd">
        <g id="Product" transform="translate(-946.000000, -622.000000)">
            <g id="Group-57" transform="translate(953.386364, 634.613636) rotate(-270.000000) translate(-953.386364, -634.613636) translate(940.886364, 627.227273)">
                <mask id="mask-2" fill="white">
                    <use xlink:href="#path-1"></use>
                </mask>
                <g id="Clip-56"></g>
                <path d="M1.02023749,2.78006788 C1.02023749,2.78006788 3.79622861,1.93538559 4.81624266,2.72371872 L5.8359774,3.62475018 L6.79929296,3.56840101 L10.8785112,6.83415427 L9.06555637,7.34101917 L7.36571916,6.10217031 L6.17588898,7.00320177 L3.17310393,5.14506727 L2.09667071,6.21486864 L0.170318884,4.63820238 C0.170318884,4.63820238 -1.0195113,8.29812221 2.88989083,11.732923 C6.79929296,15.1677237 15.9777436,15.8999853 24.7595841,11.564153 L24.4196725,8.86133626 L23.2865408,6.55268604 L23.0600262,4.97601978 L21.8134975,4.24403581 L21.6434021,4.69455154 L21.0769759,3.56840101 L20.8504612,4.30038498 L20.1136603,2.89276621 L19.9438442,3.68109934 L18.0174923,2.49859965 L17.7906984,3.17423445 L14.6180972,2.27320299 L13.3715686,2.83641705 C13.3715686,2.83641705 3.22980241,-3.35754966 1.02023749,2.78006788" id="Fill-55" fill="#DF2F25" mask="url(#mask-2)"></path>
            </g>
        </g>
    </g>
</svg>