<?xml version="1.0" encoding="utf-8"?>
<!-- Generator: Adobe Illustrator 21.1.0, SVG Export Plug-In . SVG Version: 6.00 Build 0)  -->
<svg version="1.1" id="Layer_1" xmlns="http://www.w3.org/2000/svg" xmlns:xlink="http://www.w3.org/1999/xlink" x="0px" y="0px"
	 viewBox="0 0 32 32" style="enable-background:new 0 0 32 32;" xml:space="preserve">
<path d="M27.2,11.7c0-5-4.2-9.7-10.5-9.7C8.8,2,4.8,7.8,4.8,12.6c0,2.9,1.1,5.5,3.4,6.5c0.4,0.2,0.7,0,0.8-0.4
	c0.1-0.3,0.3-1.1,0.3-1.4c0.1-0.4,0.1-0.6-0.2-0.9C8.5,15.5,8,14.5,8,13c0-4.3,3.1-8.1,8.2-8.1c4.5,0,6.9,2.8,6.9,6.5
	c0,4.9-2.1,9-5.3,9c-1.7,0-3-1.5-2.6-3.3c0.5-2.2,1.5-4.5,1.5-6c0-1.4-0.7-2.6-2.2-2.6c-1.8,0-3.2,1.9-3.2,4.4
	c0,1.6,0.5,2.7,0.5,2.7s-1.8,7.9-2.1,9.3c-0.3,1.3-0.3,2.6-0.3,3.8c0.1,1,1.1,1.9,2,0.8c0.6-1,1.3-2.3,1.6-3.6
	c0.2-0.8,1.2-4.7,1.2-4.7c0.6,1.1,2.3,2.1,4.1,2.1C23.6,23.4,27.2,18.4,27.2,11.7z"/>
</svg>
