<?xml version="1.0" encoding="utf-8"?>
<!-- Generator: Adobe Illustrator 21.1.0, SVG Export Plug-In . SVG Version: 6.00 Build 0)  -->
<svg version="1.1" id="Layer_1" xmlns="http://www.w3.org/2000/svg" xmlns:xlink="http://www.w3.org/1999/xlink" x="0px" y="0px"
	 viewBox="0 0 32 32" style="enable-background:new 0 0 32 32;" xml:space="preserve">
<style type="text/css">
	.st0{clip-path:url(#SVGID_2_);}
	.st1{clip-path:url(#SVGID_4_);enable-background:new    ;}
	.st2{clip-path:url(#SVGID_6_);}
	.st3{clip-path:url(#SVGID_8_);}
	.st4{clip-path:url(#SVGID_10_);}
</style>
<g>
	<defs>
		<rect id="SVGID_1_" x="0.5" y="0.5" width="31" height="31"/>
	</defs>
	<clipPath id="SVGID_2_">
		<use xlink:href="#SVGID_1_"  style="overflow:visible;"/>
	</clipPath>
	<g class="st0">
		<defs>
			<rect id="SVGID_3_" x="-1509.9" y="-170" width="2480" height="5896.9"/>
		</defs>
		<clipPath id="SVGID_4_">
			<use xlink:href="#SVGID_3_"  style="overflow:visible;"/>
		</clipPath>
		<g class="st1">
			<g>
				<defs>
					<rect id="SVGID_5_" x="0.5" y="0.5" width="31" height="31"/>
				</defs>
				<clipPath id="SVGID_6_">
					<use xlink:href="#SVGID_5_"  style="overflow:visible;"/>
				</clipPath>
				<g class="st2">
					<defs>
						<path id="SVGID_7_" d="M30.7,26.9l-7.4-7.4c3.1-4.9,2.4-11.2-1.7-15.4c-2.3-2.3-5.4-3.6-8.7-3.6c-3.3,0-6.4,1.3-8.7,3.6
							s-3.6,5.4-3.6,8.7c0,3.3,1.3,6.4,3.6,8.7c2.3,2.3,5.4,3.6,8.7,3.6c2.4,0,4.6-0.7,6.6-1.9l7.4,7.4c0.5,0.5,1.2,0.8,1.9,0.8
							c0.7,0,1.4-0.3,1.9-0.8c0.5-0.5,0.8-1.2,0.8-1.9C31.5,28.1,31.2,27.4,30.7,26.9 M19,19c-1.6,1.6-3.8,2.5-6.1,2.5
							c-2.3,0-4.5-0.9-6.1-2.5c-1.6-1.6-2.5-3.8-2.5-6.1c0-2.3,0.9-4.5,2.5-6.1c1.6-1.6,3.8-2.5,6.1-2.5c2.3,0,4.5,0.9,6.1,2.5
							C22.4,10.1,22.4,15.6,19,19"/>
					</defs>
					<clipPath id="SVGID_8_">
						<use xlink:href="#SVGID_7_"  style="overflow:visible;"/>
					</clipPath>
					<g class="st3">
						<defs>
							<rect id="SVGID_9_" x="0.5" y="0.5" width="31" height="31"/>
						</defs>
						<clipPath id="SVGID_10_">
							<use xlink:href="#SVGID_9_"  style="overflow:visible;"/>
						</clipPath>
						<rect x="-8.1" y="-8.1" class="st4" width="48.2" height="48.2"/>
					</g>
				</g>
			</g>
		</g>
	</g>
</g>
</svg>
