<?xml version="1.0" encoding="utf-8"?>
<!-- Generator: Adobe Illustrator 21.1.0, SVG Export Plug-In . SVG Version: 6.00 Build 0)  -->
<svg version="1.1" id="Layer_1" xmlns="http://www.w3.org/2000/svg" xmlns:xlink="http://www.w3.org/1999/xlink" x="0px" y="0px"
	 viewBox="0 0 32 32" style="enable-background:new 0 0 32 32;" xml:space="preserve">
<g>
	<path id="YouTube" d="M24.4,22.7h-1.6l0-0.9c0-0.4,0.3-0.7,0.7-0.7h0.1c0.4,0,0.8,0.3,0.8,0.7L24.4,22.7z M18.4,20.7
		c-0.4,0-0.7,0.3-0.7,0.6v4.5c0,0.3,0.3,0.6,0.7,0.6c0.4,0,0.7-0.3,0.7-0.6v-4.5C19.1,21,18.8,20.7,18.4,20.7z M28.1,18.2v8.6
		c0,2.1-1.8,3.7-4,3.7H7.9c-2.2,0-4-1.7-4-3.7v-8.6c0-2.1,1.8-3.7,4-3.7h16.3C26.3,14.5,28.1,16.2,28.1,18.2z M9,27.7l0-9l2,0v-1.3
		l-5.4,0v1.3l1.7,0v9H9z M15,20h-1.7v4.8c0,0.7,0,1,0,1.2c-0.1,0.4-0.8,0.8-1,0c0-0.1,0-0.5,0-1.2l0-4.8h-1.7l0,4.8
		c0,0.7,0,1.3,0,1.5c0,0.4,0,0.9,0.4,1.2c0.8,0.5,2.2-0.1,2.6-0.9l0,1l1.3,0L15,20L15,20z M20.4,25.5l0-4c0-1.5-1.1-2.4-2.7-1.2l0-3
		l-1.7,0l0,10.3l1.4,0l0.1-0.6C19.3,28.6,20.4,27.5,20.4,25.5z M25.6,25l-1.3,0c0,0,0,0.1,0,0.2v0.7c0,0.4-0.3,0.7-0.7,0.7h-0.2
		c-0.4,0-0.7-0.3-0.7-0.7v-0.1V25v-1h2.9V23c0-0.8,0-1.6-0.1-2c-0.2-1.4-2.2-1.7-3.2-0.9c-0.3,0.2-0.6,0.5-0.7,0.9
		c-0.1,0.4-0.2,1-0.2,1.7V25C21.4,29,26.2,28.4,25.6,25z M19.2,12c0.1,0.2,0.2,0.4,0.4,0.5c0.2,0.1,0.4,0.2,0.7,0.2
		c0.2,0,0.5-0.1,0.6-0.2c0.2-0.1,0.3-0.3,0.5-0.6l0,0.7h1.9v-8h-1.5v6.2c0,0.3-0.3,0.6-0.6,0.6c-0.3,0-0.6-0.3-0.6-0.6V4.6H19V10
		c0,0.7,0,1.1,0,1.4C19,11.6,19.1,11.8,19.2,12z M13.5,7.5c0-0.8,0.1-1.4,0.2-1.8c0.1-0.4,0.4-0.8,0.7-1c0.3-0.3,0.8-0.4,1.3-0.4
		c0.4,0,0.8,0.1,1.1,0.3c0.3,0.2,0.6,0.4,0.7,0.7c0.2,0.3,0.3,0.5,0.3,0.8c0.1,0.3,0.1,0.7,0.1,1.3v2c0,0.7,0,1.3-0.1,1.6
		c-0.1,0.3-0.2,0.7-0.4,1c-0.2,0.3-0.4,0.5-0.7,0.7c-0.3,0.1-0.6,0.2-1,0.2c-0.4,0-0.8-0.1-1.1-0.2c-0.3-0.1-0.5-0.3-0.7-0.6
		c-0.2-0.2-0.3-0.5-0.4-0.9c-0.1-0.3-0.1-0.9-0.1-1.6L13.5,7.5L13.5,7.5z M15,10.7c0,0.5,0.3,0.8,0.7,0.8c0.4,0,0.7-0.4,0.7-0.8V6.5
		c0-0.5-0.3-0.8-0.7-0.8C15.3,5.7,15,6,15,6.5V10.7z M9.8,12.9h1.8l0-6.1l2.1-5.2h-1.9l-1.1,3.9L9.5,1.5H7.6l2.2,5.2L9.8,12.9z"/>
</g>
</svg>
